# xmcd CD database file
#
# Track frame offsets:
#	182
#	69375
#	118725
#	203425
#
# Disc length: 2851 seconds
#
# Revision: 0
# Processed by: cddbd v1.4PL0 Copyright (c) Steve Scherf et al.
# Submitted via: CDex 1.50
#
DISCID=2f0b2104
DTITLE=Trio Hurricane - Suite of Winds
DYEAR=1994
DGENRE=Jazz
TTITLE0=North
TTITLE1=South
TTITLE2=East
TTITLE3=West
EXTD=YEAR: 1994
EXTT0=
EXTT1=
EXTT2=
EXTT3=
PLAYORDER=
